<?xml version="1.0" standalone="no"?><!DOCTYPE svg PUBLIC "-//W3C//DTD SVG 1.1//EN" "http://www.w3.org/Graphics/SVG/1.1/DTD/svg11.dtd"><svg class="icon" width="200px" height="200.00px" viewBox="0 0 1024 1024" version="1.1" xmlns="http://www.w3.org/2000/svg"><path d="M735.288889 538.908444a35.754667 35.754667 0 0 1-48.071111 14.279112l-56.860445-30.151112 18.460445-69.717333 72.135111 38.200889a34.702222 34.702222 0 0 1 14.336 47.388444zM598.556444 253.297778c-39.281778 0-71.168-31.232-71.168-69.745778C527.36 145.009778 559.217778 113.777778 598.556444 113.777778c39.338667 0 71.196444 31.232 71.196445 69.774222 0 38.513778-31.857778 69.745778-71.196445 69.745778z m-49.379555 32.085333a102.741333 102.741333 0 0 1 72.760889 125.866667l-5.916445 23.864889 4.892445 12.174222a34.872889 34.872889 0 0 1-19.626667 45.283555l-3.584 13.368889 0.597333 0.341334-7.054222 28.444444c6.371556 4.039111 12.088889 9.159111 15.644445 16.355556l61.980444 125.895111c2.958222 6.030222 4.152889 12.401778 4.096 18.659555 9.102222 6.428444 15.701333 16.298667 17.408 28.103111l20.394667 138.467556a42.097778 42.097778 0 0 1-36.010667 47.559111 42.496 42.496 0 0 1-48.270222-35.498667l-20.366222-138.524444a40.96 40.96 0 0 1-0.284445-6.940444 41.187556 41.187556 0 0 1-13.596444-15.160889l-30.208-61.383111-0.483556 1.991111s-132.693333-53.504-100.067555-173.084445l21.304889-88.689778-36.551112 36.124445c-0.398222 0.967111-0.312889 1.991111-0.768 2.929778l-55.381333 113.208889a35.470222 35.470222 0 0 1-47.303111 16.071111 35.015111 35.015111 0 0 1-16.583111-46.848l55.352889-113.237334c0.625778-1.308444 1.792-2.104889 2.56-3.299555 1.564444-5.546667 4.039111-10.865778 8.476444-15.217778l89.941334-88.832c11.235556-11.093333 28.017778-12.629333 41.443555-5.546667a37.831111 37.831111 0 0 1 25.201778-2.446222z m-141.738667 416.682667c-0.170667-4.750222 0.284444-9.585778 1.848889-14.392889l33.223111-102.684445a155.022222 155.022222 0 0 0 66.759111 70.030223l-18.858666 58.197333c-2.844444 8.817778-8.817778 15.416889-15.843556 20.48 0.512 8.533333-1.507556 17.322667-6.599111 25.031111l-76.686222 117.76a42.922667 42.922667 0 0 1-58.823111 12.657778 41.614222 41.614222 0 0 1-12.8-58.026667l76.686222-117.76c2.986667-4.579556 6.855111-8.277333 11.093333-11.292444z" fill="#000000" /><path d="M735.288889 538.908444a35.754667 35.754667 0 0 1-48.071111 14.279112l-56.860445-30.151112 18.460445-69.717333 72.135111 38.200889a34.702222 34.702222 0 0 1 14.336 47.388444zM598.556444 253.297778c-39.281778 0-71.168-31.232-71.168-69.745778C527.36 145.009778 559.217778 113.777778 598.556444 113.777778c39.338667 0 71.196444 31.232 71.196445 69.774222 0 38.513778-31.857778 69.745778-71.196445 69.745778z m-49.379555 32.085333a37.831111 37.831111 0 0 0-25.201778 2.446222c-13.425778-7.111111-30.208-5.546667-41.443555 5.546667l-89.941334 88.832c-4.437333 4.352-6.912 9.671111-8.476444 15.217778-0.768 1.194667-1.934222 1.991111-2.56 3.299555l-55.352889 113.237334a35.015111 35.015111 0 0 0 16.583111 46.848c17.635556 8.504889 38.826667 1.308444 47.303111-16.071111l55.381333-113.208889c0.455111-0.938667 0.398222-1.991111 0.768-2.929778l36.551112-36.124445-21.304889 88.689778C428.856889 600.746667 561.550222 654.222222 561.550222 654.222222l0.483556-1.962666 30.208 61.383111c3.185778 6.456889 8.078222 11.235556 13.568 15.160889a40.96 40.96 0 0 0 0.312889 6.968888l20.366222 138.496c3.413333 22.954667 24.974222 38.855111 48.270222 35.498667a42.097778 42.097778 0 0 0 36.010667-47.559111l-20.394667-138.467556a41.642667 41.642667 0 0 0-17.408-28.103111c0.056889-6.257778-1.137778-12.629333-4.096-18.659555l-62.008889-125.895111c-3.527111-7.196444-9.244444-12.316444-15.644444-16.355556l7.082666-28.444444-0.597333-0.341334 3.555556-13.368889c18.033778-7.281778 26.823111-27.420444 19.626666-45.283555l-4.864-12.174222 5.916445-23.864889a102.741333 102.741333 0 0 0-72.760889-125.866667z m-141.738667 416.682667c-0.170667-4.750222 0.284444-9.585778 1.848889-14.392889l33.223111-102.684445a155.022222 155.022222 0 0 0 66.759111 70.030223l-18.858666 58.197333c-2.844444 8.817778-8.817778 15.416889-15.843556 20.48 0.512 8.533333-1.507556 17.322667-6.599111 25.031111l-76.686222 117.76a42.922667 42.922667 0 0 1-58.823111 12.657778 41.614222 41.614222 0 0 1-12.8-58.026667l76.686222-117.76c2.986667-4.579556 6.855111-8.277333 11.093333-11.292444z" fill="#000000" /></svg>